<?xml version="1.0" encoding="iso-8859-1"?>
<!-- Generator: Adobe Illustrator 19.0.0, SVG Export Plug-In . SVG Version: 6.00 Build 0)  -->
<svg version="1.1" id="Capa_1" xmlns="http://www.w3.org/2000/svg" xmlns:xlink="http://www.w3.org/1999/xlink" x="0px" y="0px"
	 viewBox="0 0 512 512" style="enable-background:new 0 0 512 512;" xml:space="preserve">
<g>
	<g>
		<path d="M512,352.024V0H0v352.024h241v40.718l-115.392,96.16l19.205,23.047L241,431.793V512h30v-80.207l96.187,80.156
			l19.205-23.047L271,392.742v-40.718H512z M30,322.024V30h452v292.024H30z"/>
	</g>
</g>
<g>
	<g>
		<polygon points="344.952,60.048 344.952,90.048 400.739,90.048 334.424,156.363 251.601,96.413 160.214,247.419 77.949,186.285 
			60.055,210.364 168.799,291.176 260.399,139.816 337.552,195.662 421.952,111.261 421.952,167.048 451.952,167.048 
			451.952,60.048 		"/>
	</g>
</g>
<g>
</g>
<g>
</g>
<g>
</g>
<g>
</g>
<g>
</g>
<g>
</g>
<g>
</g>
<g>
</g>
<g>
</g>
<g>
</g>
<g>
</g>
<g>
</g>
<g>
</g>
<g>
</g>
<g>
</g>
</svg>
