<svg height="512pt" viewBox="-16 0 512 512" width="512pt" xmlns="http://www.w3.org/2000/svg"><path d="m216 352h-192c-13.230469 0-24-10.769531-24-24v-304c0-13.230469 10.769531-24 24-24h304c13.230469 0 24 10.769531 24 24v128c0 4.414062-3.574219 8-8 8s-8-3.585938-8-8v-128c0-4.40625-3.585938-8-8-8h-304c-4.414062 0-8 3.59375-8 8v304c0 4.414062 3.585938 8 8 8h192c4.425781 0 8 3.574219 8 8s-3.574219 8-8 8zm0 0"/><path d="m144 88c-4.425781 0-8-3.585938-8-8v-72c0-4.414062 3.574219-8 8-8s8 3.585938 8 8v72c0 4.414062-3.574219 8-8 8zm0 0"/><path d="m208 88c-4.425781 0-8-3.585938-8-8v-72c0-4.414062 3.574219-8 8-8s8 3.585938 8 8v72c0 4.414062-3.574219 8-8 8zm0 0"/><path d="m144.007812 88c-2.9375 0-5.761718-1.617188-7.167968-4.425781-1.976563-3.949219-.375-8.757813 3.574218-10.734375l32-16c3.953126-1.976563 8.753907-.375 10.738282 3.574218 1.976562 3.953126.375 8.761719-3.578125 10.738282l-32 16c-1.140625.574218-2.367188.847656-3.566407.847656zm0 0"/><path d="m207.992188 88c-1.199219 0-2.425782-.273438-3.566407-.839844l-32-16c-3.953125-1.976562-5.554687-6.785156-3.578125-10.734375 1.984375-3.953125 6.777344-5.554687 10.738282-3.578125l32 16c3.949218 1.976563 5.550781 6.785156 3.574218 10.738282-1.40625 2.796874-4.230468 4.414062-7.167968 4.414062zm0 0"/><path d="m128 288h-80c-4.425781 0-8-3.574219-8-8s3.574219-8 8-8h80c4.425781 0 8 3.574219 8 8s-3.574219 8-8 8zm0 0"/><path d="m88 312h-40c-4.425781 0-8-3.574219-8-8s3.574219-8 8-8h40c4.425781 0 8 3.574219 8 8s-3.574219 8-8 8zm0 0"/><path d="m472 512h-256c-4.425781 0-8-3.574219-8-8v-352c0-4.414062 3.574219-8 8-8h256c4.425781 0 8 3.585938 8 8v352c0 4.425781-3.574219 8-8 8zm-248-16h240v-336h-240zm0 0"/><path d="m303.992188 192c-3.585938 0-6.839844-2.425781-7.753907-6.054688l-8-32c-1.078125-4.289062 1.53125-8.632812 5.824219-9.707031 4.273438-1.085937 8.625 1.539063 9.699219 5.824219l8 32c1.078125 4.289062-1.53125 8.632812-5.824219 9.707031-.648438.160157-1.304688.230469-1.945312.230469zm0 0"/><path d="m384 192h-80c-4.425781 0-8-3.585938-8-8s3.574219-8 8-8h80c4.425781 0 8 3.585938 8 8s-3.574219 8-8 8zm0 0"/><path d="m384.007812 192c-.640624 0-1.296874-.070312-1.945312-.238281-4.285156-1.074219-6.894531-5.417969-5.824219-9.707031l8-32c1.074219-4.277344 5.402344-6.910157 9.699219-5.824219 4.285156 1.074219 6.894531 5.417969 5.824219 9.707031l-8 32c-.914063 3.636719-4.167969 6.0625-7.753907 6.0625zm0 0"/><path d="m302 184h-62c-4.425781 0-8-3.585938-8-8s3.574219-8 8-8h62c4.425781 0 8 3.585938 8 8s-3.574219 8-8 8zm0 0"/><path d="m448 184h-62c-4.425781 0-8-3.585938-8-8s3.574219-8 8-8h62c4.425781 0 8 3.585938 8 8s-3.574219 8-8 8zm0 0"/><path d="m448 488c-4.425781 0-8-3.574219-8-8v-304c0-4.414062 3.574219-8 8-8s8 3.585938 8 8v304c0 4.425781-3.574219 8-8 8zm0 0"/><path d="m448 488h-208c-4.425781 0-8-3.574219-8-8s3.574219-8 8-8h208c4.425781 0 8 3.574219 8 8s-3.574219 8-8 8zm0 0"/><path d="m240 488c-4.425781 0-8-3.574219-8-8v-304c0-4.414062 3.574219-8 8-8s8 3.585938 8 8v304c0 4.425781-3.574219 8-8 8zm0 0"/><path d="m288 280c-2.046875 0-4.097656-.785156-5.65625-2.34375l-8-8c-3.128906-3.128906-3.128906-8.183594 0-11.3125s8.183594-3.128906 11.3125 0l8 8c3.128906 3.128906 3.128906 8.183594 0 11.3125-1.558594 1.558594-3.609375 2.34375-5.65625 2.34375zm0 0"/><path d="m288 280c-2.046875 0-4.097656-.785156-5.65625-2.34375-3.128906-3.128906-3.128906-8.183594 0-11.3125l24-24c3.128906-3.128906 8.183594-3.128906 11.3125 0s3.128906 8.183594 0 11.3125l-24 24c-1.558594 1.558594-3.609375 2.34375-5.65625 2.34375zm0 0"/><path d="m408 256h-64c-4.425781 0-8-3.585938-8-8s3.574219-8 8-8h64c4.425781 0 8 3.585938 8 8s-3.574219 8-8 8zm0 0"/><path d="m368 280h-23.246094c-4.425781 0-8-3.574219-8-8s3.574219-8 8-8h23.246094c4.425781 0 8 3.574219 8 8s-3.574219 8-8 8zm0 0"/><path d="m288 352c-2.046875 0-4.097656-.785156-5.65625-2.34375l-8-8c-3.128906-3.128906-3.128906-8.183594 0-11.3125s8.183594-3.128906 11.3125 0l8 8c3.128906 3.128906 3.128906 8.183594 0 11.3125-1.558594 1.558594-3.609375 2.34375-5.65625 2.34375zm0 0"/><path d="m288 352c-2.046875 0-4.097656-.785156-5.65625-2.34375-3.128906-3.128906-3.128906-8.183594 0-11.3125l24-24c3.128906-3.128906 8.183594-3.128906 11.3125 0s3.128906 8.183594 0 11.3125l-24 24c-1.558594 1.558594-3.609375 2.34375-5.65625 2.34375zm0 0"/><path d="m408 328h-64c-4.425781 0-8-3.574219-8-8s3.574219-8 8-8h64c4.425781 0 8 3.574219 8 8s-3.574219 8-8 8zm0 0"/><path d="m368 352h-23.246094c-4.425781 0-8-3.574219-8-8s3.574219-8 8-8h23.246094c4.425781 0 8 3.574219 8 8s-3.574219 8-8 8zm0 0"/><path d="m288 424c-2.046875 0-4.097656-.785156-5.65625-2.34375l-8-8c-3.128906-3.128906-3.128906-8.183594 0-11.3125s8.183594-3.128906 11.3125 0l8 8c3.128906 3.128906 3.128906 8.183594 0 11.3125-1.558594 1.558594-3.609375 2.34375-5.65625 2.34375zm0 0"/><path d="m288 424c-2.046875 0-4.097656-.785156-5.65625-2.34375-3.128906-3.128906-3.128906-8.183594 0-11.3125l24-24c3.128906-3.128906 8.183594-3.128906 11.3125 0s3.128906 8.183594 0 11.3125l-24 24c-1.558594 1.558594-3.609375 2.34375-5.65625 2.34375zm0 0"/><path d="m408 400h-64c-4.425781 0-8-3.574219-8-8s3.574219-8 8-8h64c4.425781 0 8 3.574219 8 8s-3.574219 8-8 8zm0 0"/><path d="m368 424h-23.246094c-4.425781 0-8-3.574219-8-8s3.574219-8 8-8h23.246094c4.425781 0 8 3.574219 8 8s-3.574219 8-8 8zm0 0"/></svg>