<?xml version="1.0" encoding="iso-8859-1"?>
<!-- Generator: Adobe Illustrator 19.0.0, SVG Export Plug-In . SVG Version: 6.00 Build 0)  -->
<svg version="1.1" id="Capa_1" xmlns="http://www.w3.org/2000/svg" xmlns:xlink="http://www.w3.org/1999/xlink" x="0px" y="0px"
	 viewBox="0 0 480 480" style="enable-background:new 0 0 480 480;" xml:space="preserve">
<g>
	<g>
		<path d="M64,400c-13.255,0-24,10.745-24,24s10.745,24,24,24s24-10.745,24-24C87.986,410.751,77.249,400.014,64,400z M64,432
			c-4.418,0-8-3.582-8-8s3.582-8,8-8s8,3.582,8,8C71.996,428.416,68.416,431.996,64,432z"/>
	</g>
</g>
<g>
	<g>
		<path d="M472.004,80c-0.001,0-0.003,0-0.004,0h-24c-99.359,0-166.609-27.273-184.512-74.82c-1.292-3.06-4.25-5.084-7.57-5.18
			c-3.361,0.034-6.342,2.166-7.461,5.336C230.973,54.883,171.602,80,72,80H40c-4.417-0.001-7.999,3.579-8,7.996
			c0,0.001,0,0.003,0,0.004v152H8c-4.417-0.001-7.999,3.579-8,7.996c0,0.001,0,0.003,0,0.004v224c-0.001,4.417,3.579,7.999,7.996,8
			c0.001,0,0.003,0,0.004,0h402.457c38.389-0.042,69.499-31.15,69.543-69.539V88C480.001,83.583,476.421,80.001,472.004,80z
			 M104,464H16V256h88V464z M432.036,445.93c-1.537,10.642-10.832,18.426-21.579,18.07H120V256h104c3.382,0,6.399-2.127,7.535-5.313
			l30.891-86.492c4.786-13.399,19.528-20.382,32.927-15.596c12.311,4.397,19.377,17.318,16.437,30.056l-15.586,67.547
			c-0.995,4.303,1.687,8.597,5.99,9.592c0.593,0.137,1.199,0.206,1.807,0.205h106.336c10.752-0.358,20.05,7.436,21.574,18.086
			c1.032,10.667-6.53,20.25-17.145,21.727c-4.523,0.607-7.698,4.765-7.091,9.288c0.494,3.682,3.384,6.581,7.064,7.087
			c10.944,1.515,18.587,11.616,17.072,22.56c-1.363,9.846-9.749,17.198-19.689,17.261c-4.418,0.004-7.996,3.59-7.992,8.008
			c0.004,4.418,3.59,7.996,8.008,7.992c11.044,0.074,19.937,9.088,19.863,20.132c-0.067,9.929-7.408,18.305-17.242,19.673
			c-4.523,0.612-7.693,4.773-7.082,9.296c0.497,3.678,3.385,6.573,7.062,7.079C425.405,425.619,433.039,435.215,432.036,445.93z
			 M464,410.461c0,14.487-5.892,28.351-16.322,38.406c0.068-0.496,0.24-0.958,0.287-1.46c1.14-12.059-3.863-23.883-13.313-31.461
			c15.431-12.464,17.836-35.077,5.372-50.508c-1.618-2.003-3.446-3.826-5.454-5.438c15.468-12.42,17.938-35.026,5.519-50.494
			c-1.619-2.016-3.451-3.852-5.464-5.475c9.393-7.593,14.356-19.389,13.215-31.414c-2.325-18.861-18.503-32.93-37.504-32.617
			h-96.281l13.328-57.75c5.185-22.474-8.829-44.896-31.303-50.081c-1.391-0.321-2.797-0.57-4.213-0.747
			c-19.456-2.571-38.044,8.87-44.512,27.398L218.363,240H48V96h24c96.473,0,158.328-23.289,184.27-69.281
			C292.801,86.563,390.25,96,448,96h16V410.461z"/>
	</g>
</g>
<g>
	<g>
		<path d="M234.879,73.852C205.289,98.477,168.016,111.973,129.52,112H72c-4.417-0.001-7.999,3.579-8,7.996c0,0.001,0,0.003,0,0.004
			v80h16v-72h49.52c42.237-0.031,83.133-14.837,115.602-41.852L234.879,73.852z"/>
	</g>
</g>
<g>
	<g>
		<path d="M440.004,112c-0.001,0-0.003,0-0.004,0h-57.52c-38.496-0.027-75.77-13.523-105.359-38.148l-10.242,12.297
			c32.469,27.015,73.364,41.82,115.602,41.852H432v72h16v-80C448.001,115.583,444.421,112.001,440.004,112z"/>
	</g>
</g>
<g>
</g>
<g>
</g>
<g>
</g>
<g>
</g>
<g>
</g>
<g>
</g>
<g>
</g>
<g>
</g>
<g>
</g>
<g>
</g>
<g>
</g>
<g>
</g>
<g>
</g>
<g>
</g>
<g>
</g>
</svg>
